<?xml version="1.0" encoding="UTF-8" standalone="no"?>
<!DOCTYPE svg PUBLIC "-//W3C//DTD SVG 1.1//EN" "http://www.w3.org/Graphics/SVG/1.1/DTD/svg11.dtd">
<!-- Created with Vectornator (http://vectornator.io/) -->
<svg height="160.00000000000014mm" stroke-miterlimit="10" style="fill-rule:nonzero;clip-rule:evenodd;stroke-linecap:round;stroke-linejoin:round;" version="1.1" viewBox="0 0 2268 453.6" width="799.9999999999997mm" xml:space="preserve" xmlns="http://www.w3.org/2000/svg" xmlns:xlink="http://www.w3.org/1999/xlink">
<defs>
<radialGradient cx="0" cy="0" gradientTransform="matrix(188.253 175.899 -147.567 188.253 227.739 52.7996)" gradientUnits="userSpaceOnUse" id="RadialGradient" r="1">
<stop offset="0" stop-color="#8391ce"/>
<stop offset="1" stop-color="#000000"/>
</radialGradient>
<radialGradient cx="0" cy="0" gradientTransform="matrix(-150.963 -288.061 241.663 -150.963 263.502 306.332)" gradientUnits="userSpaceOnUse" id="RadialGradient_2" r="1">
<stop offset="0" stop-color="#e9ddff"/>
<stop offset="1" stop-color="#1d003a"/>
</radialGradient>
</defs>
<g id="Layer-1">
<g opacity="1">
<path d="M226.8 22.68C68.04 22.68 22.68 68.04 22.68 226.8C22.68 385.56 68.04 430.92 226.8 430.92C385.56 430.92 430.92 385.56 430.92 226.8C430.92 68.04 385.56 22.68 226.8 22.68Z" fill="url(#RadialGradient)" fill-rule="nonzero" opacity="1" stroke="none"/>
<path d="M226.795 22.7013C79.38 22.68 22.68 90.72 22.67 226.826C22.66 362.933 79.37 430.92 226.795 430.92C374.22 430.92 430.92 362.88 430.92 226.826C430.92 90.7725 374.21 22.7225 226.795 22.7013ZM226.8 11.34C376.74 11.34 442.26 79.38 442.26 226.8C442.26 374.22 385.56 442.26 226.8 442.26C68.04 442.26 11.34 374.22 11.34 226.8C11.34 79.38 76.86 11.34 226.8 11.34Z" fill="url(#RadialGradient_2)" fill-rule="nonzero" opacity="1" stroke="none"/>
<path d="M90.7188 113.406C78.1929 113.406 68.0312 123.568 68.0312 136.094C68.0313 141.38 68.0313 176.155 68.0312 181.438C68.0313 193.963 78.1929 204.125 90.7188 204.125C103.245 204.125 113.406 193.963 113.406 181.438C113.406 176.155 113.406 141.38 113.406 136.094C113.406 123.568 103.245 113.406 90.7188 113.406Z" fill="#e06c75" fill-rule="nonzero" opacity="1" stroke="none"/>
<path d="M90.7188 249.469C78.1929 249.469 68.0312 259.63 68.0312 272.156C68.0313 277.437 68.0312 312.244 68.0312 317.531C68.0313 330.057 78.1929 340.188 90.7188 340.188C103.245 340.188 113.406 330.057 113.406 317.531C113.406 312.244 113.406 277.437 113.406 272.156C113.406 259.63 103.245 249.469 90.7188 249.469Z" fill="#e5c07b" fill-rule="nonzero" opacity="1" stroke="none"/>
<path d="M90.7188 204.125C78.1929 204.125 68.0312 214.287 68.0312 226.813C68.0313 239.338 78.1929 249.469 90.7188 249.469C98.1601 249.469 173.999 249.469 181.438 249.469C193.963 249.469 204.125 239.338 204.125 226.813C204.125 214.287 193.963 204.125 181.438 204.125C173.999 204.125 98.1601 204.125 90.7188 204.125Z" fill="#61afef" fill-rule="nonzero" opacity="1" stroke="none"/>
<path d="M181.438 113.406C168.912 113.406 158.75 123.568 158.75 136.094C158.75 141.38 158.75 176.155 158.75 181.438C158.75 193.963 168.912 204.125 181.438 204.125C193.963 204.125 204.125 193.963 204.125 181.438C204.125 176.155 204.125 141.38 204.125 136.094C204.125 123.568 193.963 113.406 181.438 113.406Z" fill="#98c379" fill-rule="nonzero" opacity="1" stroke="none"/>
<path d="M181.438 249.469C168.912 249.469 158.75 259.63 158.75 272.156C158.75 277.437 158.75 312.244 158.75 317.531C158.75 330.057 168.912 340.188 181.438 340.188C193.963 340.188 204.125 330.057 204.125 317.531C204.125 312.244 204.125 277.437 204.125 272.156C204.125 259.63 193.963 249.469 181.438 249.469Z" fill="#c678dd" fill-rule="nonzero" opacity="1" stroke="none"/>
<path d="M272.156 294.844C259.63 294.844 249.469 305.005 249.469 317.531C249.469 330.057 259.63 340.188 272.156 340.188C280.675 340.188 354.361 340.188 362.875 340.188C375.401 340.188 385.562 330.057 385.562 317.531C385.563 305.005 375.401 294.844 362.875 294.844C354.361 294.844 280.675 294.844 272.156 294.844Z" fill="#abb2bf" fill-rule="nonzero" opacity="1" stroke="none"/>
<path d="M272.156 113.406C259.63 113.406 249.469 123.568 249.469 136.094C249.469 143.298 249.469 267.371 249.469 272.156C249.469 284.682 259.63 294.844 272.156 294.844C284.682 294.844 294.844 284.682 294.844 272.156C294.844 266.776 294.844 141.784 294.844 136.094C294.844 123.568 284.682 113.406 272.156 113.406Z" fill="#56b6c2" fill-rule="nonzero" opacity="1" stroke="none"/>
</g>
</g>
</svg>
