<?xml version="1.0" encoding="UTF-8" standalone="no"?>
<svg
   xmlns:dc="http://purl.org/dc/elements/1.1/"
   xmlns:cc="http://creativecommons.org/ns#"
   xmlns:rdf="http://www.w3.org/1999/02/22-rdf-syntax-ns#"
   xmlns:svg="http://www.w3.org/2000/svg"
   xmlns="http://www.w3.org/2000/svg"
   version="1.1"
   id="svg2"
   xml:space="preserve"
   width="943.55334"
   height="269.112"
   viewBox="0 0 943.55334 269.112"><metadata
     id="metadata8"><rdf:RDF><cc:Work
         rdf:about=""><dc:format>image/svg+xml</dc:format><dc:type
           rdf:resource="http://purl.org/dc/dcmitype/StillImage" /></cc:Work></rdf:RDF></metadata><defs
     id="defs6"><clipPath
       clipPathUnits="userSpaceOnUse"
       id="clipPath20"><path
         d="M 0,0 H 707.665 V 201.834 H 0 Z"
         id="path18" /></clipPath><clipPath
       clipPathUnits="userSpaceOnUse"
       id="clipPath48"><path
         d="m 0,98.89947 h 2 v 13.72 H 0 Z"
         id="path46" /></clipPath><clipPath
       clipPathUnits="userSpaceOnUse"
       id="clipPath58"><path
         d="m 12.32497,0 h 686.5 v 17.58 h -686.5 z"
         id="path56" /></clipPath><clipPath
       clipPathUnits="userSpaceOnUse"
       id="clipPath72"><path
         d="m 8.044966,16.58 h 8.56 V 30.3 h -8.56 z"
         id="path70" /></clipPath><clipPath
       clipPathUnits="userSpaceOnUse"
       id="clipPath86"><path
         d="m 176.89,16.58 h 14.12 V 30.3 h -14.12 z"
         id="path84" /></clipPath><clipPath
       clipPathUnits="userSpaceOnUse"
       id="clipPath100"><path
         d="m 348.515,16.58 h 14.12 V 30.3 h -14.12 z"
         id="path98" /></clipPath><clipPath
       clipPathUnits="userSpaceOnUse"
       id="clipPath114"><path
         d="m 517.36,16.58 h 19.68 V 30.3 h -19.68 z"
         id="path112" /></clipPath><clipPath
       clipPathUnits="userSpaceOnUse"
       id="clipPath128"><path
         d="m 688.985,16.58 h 18.68 V 30.3 h -18.68 z"
         id="path126" /></clipPath><clipPath
       clipPathUnits="userSpaceOnUse"
       id="clipPath142"><path
         d="M 17.70297,64 H 634.297 c 1.3801,0 2.2082,0 2.7602,-0.23047 0.7958,-0.28964 1.4227,-0.91653 1.7123,-1.71233 C 639,61.50517 639,60.67712 639,59.29703 V 43.70297 c 0,-1.38009 0,-2.20814 -0.2305,-2.76017 -0.2896,-0.7958 -0.9165,-1.42269 -1.7123,-1.71233 C 636.5052,39 635.6771,39 634.297,39 H 17.70297 C 16.32288,39 15.49483,39 14.9428,39.23047 14.147,39.52011 13.52011,40.147 13.23047,40.9428 13,41.49483 13,42.32288 13,43.70297 v 15.59406 c 0,1.38009 0,2.20814 0.23047,2.76017 0.28964,0.7958 0.91653,1.42269 1.71233,1.71233 C 15.49483,64 16.32288,64 17.70297,64 Z"
         id="path140" /></clipPath><clipPath
       clipPathUnits="userSpaceOnUse"
       id="clipPath148"><path
         d="M 13,39 H 639 V 64 H 13 Z"
         id="path146" /></clipPath><clipPath
       clipPathUnits="userSpaceOnUse"
       id="clipPath156"><path
         d="M 0,0 H 626 V 25 H 0 Z"
         id="path154" /></clipPath><clipPath
       clipPathUnits="userSpaceOnUse"
       id="clipPath160"><path
         d="M 0,0 H 626 V 25 H 0 Z"
         id="path158" /></clipPath><clipPath
       clipPathUnits="userSpaceOnUse"
       id="clipPath180"><path
         d="M 17.70297,91 H 151.297 c 1.3801,0 2.2082,0 2.7602,-0.23047 0.7958,-0.28964 1.4227,-0.91653 1.7123,-1.71233 C 156,88.50517 156,87.67712 156,86.29703 V 70.70297 c 0,-1.38009 0,-2.20814 -0.2305,-2.76017 -0.2896,-0.7958 -0.9165,-1.42269 -1.7123,-1.71233 C 153.5052,66 152.6771,66 151.297,66 H 17.70297 C 16.32288,66 15.49483,66 14.9428,66.23047 14.147,66.52011 13.52011,67.147 13.23047,67.9428 13,68.49483 13,69.32288 13,70.70297 v 15.59406 c 0,1.38009 0,2.20814 0.23047,2.76017 0.28964,0.7958 0.91653,1.42269 1.71233,1.71233 C 15.49483,91 16.32288,91 17.70297,91 Z"
         id="path178" /></clipPath><clipPath
       clipPathUnits="userSpaceOnUse"
       id="clipPath186"><path
         d="M 13,66 H 156 V 91 H 13 Z"
         id="path184" /></clipPath><clipPath
       clipPathUnits="userSpaceOnUse"
       id="clipPath194"><path
         d="M 0,0 H 143 V 25 H 0 Z"
         id="path192" /></clipPath><clipPath
       clipPathUnits="userSpaceOnUse"
       id="clipPath198"><path
         d="M 0,0 H 143 V 25 H 0 Z"
         id="path196" /></clipPath><clipPath
       clipPathUnits="userSpaceOnUse"
       id="clipPath218"><path
         d="M 17.70297,118 H 332.297 c 1.3801,0 2.2082,0 2.7602,-0.2305 0.7958,-0.2896 1.4227,-0.9165 1.7123,-1.7123 C 337,115.5052 337,114.6771 337,113.297 V 97.70297 c 0,-1.38009 0,-2.20814 -0.2305,-2.76017 -0.2896,-0.7958 -0.9165,-1.42269 -1.7123,-1.71233 C 334.5052,93 333.6771,93 332.297,93 H 17.70297 C 16.32288,93 15.49483,93 14.9428,93.23047 14.147,93.52011 13.52011,94.147 13.23047,94.9428 13,95.49483 13,96.32288 13,97.70297 V 113.297 c 0,1.3801 0,2.2082 0.23047,2.7602 0.28964,0.7958 0.91653,1.4227 1.71233,1.7123 C 15.49483,118 16.32288,118 17.70297,118 Z"
         id="path216" /></clipPath><clipPath
       clipPathUnits="userSpaceOnUse"
       id="clipPath224"><path
         d="m 13,93 h 324 v 25 H 13 Z"
         id="path222" /></clipPath><clipPath
       clipPathUnits="userSpaceOnUse"
       id="clipPath232"><path
         d="M 0,0 H 324 V 25 H 0 Z"
         id="path230" /></clipPath><clipPath
       clipPathUnits="userSpaceOnUse"
       id="clipPath236"><path
         d="M 0,0 H 324 V 25 H 0 Z"
         id="path234" /></clipPath><clipPath
       clipPathUnits="userSpaceOnUse"
       id="clipPath256"><path
         d="m 17.51485,145 h 26.9703 c 1.32488,0 2.11981,0 2.64976,-0.2212 0.76397,-0.2781 1.36578,-0.8799 1.64384,-1.6439 C 49,142.605 49,141.81 49,140.4852 v -14.9704 c 0,-1.3248 0,-2.1198 -0.22125,-2.6497 -0.27806,-0.764 -0.87987,-1.3658 -1.64384,-1.6439 C 46.60496,121 45.81003,121 44.48515,121 h -26.9703 c -1.32488,0 -2.11981,0 -2.64976,0.2212 -0.76397,0.2781 -1.36578,0.8799 -1.64384,1.6439 C 13,123.395 13,124.19 13,125.5148 v 14.9704 c 0,1.3248 0,2.1198 0.22125,2.6497 0.27806,0.764 0.87987,1.3658 1.64384,1.6439 C 15.39504,145 16.18997,145 17.51485,145 Z"
         id="path254" /></clipPath><clipPath
       clipPathUnits="userSpaceOnUse"
       id="clipPath262"><path
         d="m 13,121 h 36 v 24 H 13 Z"
         id="path260" /></clipPath><clipPath
       clipPathUnits="userSpaceOnUse"
       id="clipPath270"><path
         d="M 0,0 H 36 V 24 H 0 Z"
         id="path268" /></clipPath><clipPath
       clipPathUnits="userSpaceOnUse"
       id="clipPath274"><path
         d="M 0,0 H 36 V 24 H 0 Z"
         id="path272" /></clipPath><clipPath
       clipPathUnits="userSpaceOnUse"
       id="clipPath294"><path
         d="m 15.5,172 c 0.29163,0 0.58101,-0.0603 0.85505,-0.1781 0.69442,-0.2986 1.24143,-0.9448 1.49418,-1.7652 C 18,169.5424 18,168.7709 18,167.4852 v -14.9704 c 0,-1.2857 0,-2.0572 -0.15077,-2.5715 -0.25275,-0.8204 -0.79976,-1.4666 -1.49418,-1.7652 C 16.08101,148.0603 15.79163,148 15.5,148 c -0.29163,0 -0.58101,0.0603 -0.85505,0.1781 -0.69442,0.2986 -1.24143,0.9448 -1.49418,1.7652 C 13,150.4576 13,151.2291 13,152.5148 v 14.9704 c 0,1.2857 0,2.0572 0.15077,2.5715 0.25275,0.8204 0.79976,1.4666 1.49418,1.7652 C 14.91899,171.9397 15.20837,172 15.5,172 Z"
         id="path292" /></clipPath><clipPath
       clipPathUnits="userSpaceOnUse"
       id="clipPath300"><path
         d="m 13,148 h 5 v 24 h -5 z"
         id="path298" /></clipPath><clipPath
       clipPathUnits="userSpaceOnUse"
       id="clipPath308"><path
         d="M 0,0 H 5 V 24 H 0 Z"
         id="path306" /></clipPath><clipPath
       clipPathUnits="userSpaceOnUse"
       id="clipPath312"><path
         d="M 0,0 H 5 V 24 H 0 Z"
         id="path310" /></clipPath><clipPath
       clipPathUnits="userSpaceOnUse"
       id="clipPath332"><path
         d="M 0,0 H 707.665 V 201.834 H 0 Z"
         id="path330" /></clipPath><clipPath
       clipPathUnits="userSpaceOnUse"
       id="clipPath338"><path
         d="M 8,41 H 696 V 169 H 8 Z"
         id="path336" /></clipPath><clipPath
       clipPathUnits="userSpaceOnUse"
       id="clipPath342"><path
         d="M 0,0 H 708 V 202 H 0 Z"
         id="path340" /></clipPath></defs><g
     id="g10"
     transform="matrix(1.3333333,0,0,-1.3333333,0,269.112)"><g
       id="g12" /><g
       id="g14"><g
         id="g16"
         clip-path="url(#clipPath20)"><g
           id="g22"
           transform="matrix(1,0,0,-1,0,201.834)"><path
             d="M 183.5,23.83397 V 168.834"
             style="fill:none;stroke:#a9a9a9;stroke-width:0.5;stroke-linecap:butt;stroke-linejoin:miter;stroke-miterlimit:4;stroke-dasharray:none;stroke-opacity:0.5"
             id="path24" /></g><g
           id="g26"
           transform="matrix(1,0,0,-1,0,201.834)"><path
             d="M 355.5,23.83397 V 168.834"
             style="fill:none;stroke:#a9a9a9;stroke-width:0.5;stroke-linecap:butt;stroke-linejoin:miter;stroke-miterlimit:4;stroke-dasharray:none;stroke-opacity:0.5"
             id="path28" /></g><g
           id="g30"
           transform="matrix(1,0,0,-1,0,201.834)"><path
             d="M 527.5,23.83397 V 168.834"
             style="fill:none;stroke:#a9a9a9;stroke-width:0.5;stroke-linecap:butt;stroke-linejoin:miter;stroke-miterlimit:4;stroke-dasharray:none;stroke-opacity:0.5"
             id="path32" /></g><g
           id="g34"
           transform="matrix(1,0,0,-1,0,201.834)"><path
             d="M 698.5,23.83397 V 168.834"
             style="fill:none;stroke:#a9a9a9;stroke-width:0.5;stroke-linecap:butt;stroke-linejoin:miter;stroke-miterlimit:4;stroke-dasharray:none;stroke-opacity:0.5"
             id="path36" /></g><g
           id="g38"
           transform="matrix(1,0,0,-1,0,201.834)"><path
             d="M 12.5,168.334 V 23.33397"
             style="fill:none;stroke:#a9a9a9;stroke-width:1;stroke-linecap:square;stroke-linejoin:miter;stroke-miterlimit:4;stroke-dasharray:none;stroke-opacity:1"
             id="path40" /></g></g></g><g
       id="g42"><g
         id="g44"
         clip-path="url(#clipPath48)"><g
           id="g50"
           transform="translate(0.5,102.0294)" /></g></g><g
       id="g52"><g
         id="g54"
         clip-path="url(#clipPath58)"><g
           id="g60"
           transform="translate(336.59,2.129974)"><text
             transform="scale(1,-1)"
             style="font-variant:normal;font-weight:normal;font-size:10px;font-family:HelveticaNeue;-inkscape-font-specification:HelveticaNeue;writing-mode:lr-tb;fill:#a9a9a9;fill-opacity:1;fill-rule:nonzero;stroke:none"
             id="text64"><tspan
               x="0 5 10.37 15.74 21.48 27.040001 32.970001"
               y="0"
               id="tspan62">seconds</tspan></text></g></g></g><g
       id="g66"><g
         id="g68"
         clip-path="url(#clipPath72)"><g
           id="g74"
           transform="translate(9.544966,19.70998)"><text
             transform="scale(1,-1)"
             style="font-variant:normal;font-weight:normal;font-size:10px;font-family:HelveticaNeue;-inkscape-font-specification:HelveticaNeue;writing-mode:lr-tb;fill:#a9a9a9;fill-opacity:1;fill-rule:nonzero;stroke:none"
             id="text78"><tspan
               x="0"
               y="0"
               id="tspan76">0</tspan></text></g></g></g><g
       id="g80"><g
         id="g82"
         clip-path="url(#clipPath86)"><g
           id="g88"
           transform="translate(178.39,19.70998)"><text
             transform="scale(1,-1)"
             style="font-variant:normal;font-weight:normal;font-size:10px;font-family:HelveticaNeue;-inkscape-font-specification:HelveticaNeue;writing-mode:lr-tb;fill:#a9a9a9;fill-opacity:1;fill-rule:nonzero;stroke:none"
             id="text92"><tspan
               x="0 5.5599999"
               y="0"
               id="tspan90">40</tspan></text></g></g></g><g
       id="g94"><g
         id="g96"
         clip-path="url(#clipPath100)"><g
           id="g102"
           transform="translate(350.015,19.70998)"><text
             transform="scale(1,-1)"
             style="font-variant:normal;font-weight:normal;font-size:10px;font-family:HelveticaNeue;-inkscape-font-specification:HelveticaNeue;writing-mode:lr-tb;fill:#a9a9a9;fill-opacity:1;fill-rule:nonzero;stroke:none"
             id="text106"><tspan
               x="0 5.5599999"
               y="0"
               id="tspan104">80</tspan></text></g></g></g><g
       id="g108"><g
         id="g110"
         clip-path="url(#clipPath114)"><g
           id="g116"
           transform="translate(518.86,19.70998)"><text
             transform="scale(1,-1)"
             style="font-variant:normal;font-weight:normal;font-size:10px;font-family:HelveticaNeue;-inkscape-font-specification:HelveticaNeue;writing-mode:lr-tb;fill:#a9a9a9;fill-opacity:1;fill-rule:nonzero;stroke:none"
             id="text120"><tspan
               x="0 5.5599999 11.12"
               y="0"
               id="tspan118">120</tspan></text></g></g></g><g
       id="g122"><g
         id="g124"
         clip-path="url(#clipPath128)"><g
           id="g130"
           transform="translate(690.485,19.70998)"><text
             transform="scale(1,-1)"
             style="font-variant:normal;font-weight:normal;font-size:10px;font-family:HelveticaNeue;-inkscape-font-specification:HelveticaNeue;writing-mode:lr-tb;fill:#a9a9a9;fill-opacity:1;fill-rule:nonzero;stroke:none"
             id="text134"><tspan
               x="0 5.5599999 11.12"
               y="0"
               id="tspan132">160</tspan></text></g></g></g><g
       id="g136"><g
         id="g138"
         clip-path="url(#clipPath142)"><g
           id="g144"
           clip-path="url(#clipPath148)"><g
             id="g150"
             transform="matrix(1,0,0,-1,13,64)"><g
               id="g152" /><g
               id="g172"><g
                 clip-path="url(#clipPath156)"
                 id="g170"><g
                   id="g162" /><g
                   id="g168"><g
                     clip-path="url(#clipPath160)"
                     id="g166"><path
                       d="M 0,0 H 626 V 25 H 0 Z"
                       style="fill:#ee220c;fill-opacity:0.8047;fill-rule:nonzero;stroke:none"
                       id="path164" /></g></g></g></g></g></g></g></g><g
       id="g174"><g
         id="g176"
         clip-path="url(#clipPath180)"><g
           id="g182"
           clip-path="url(#clipPath186)"><g
             id="g188"
             transform="matrix(1,0,0,-1,13,91)"><g
               id="g190" /><g
               id="g210"><g
                 clip-path="url(#clipPath194)"
                 id="g208"><g
                   id="g200" /><g
                   id="g206"><g
                     clip-path="url(#clipPath198)"
                     id="g204"><path
                       d="M 0,0 H 143 V 25 H 0 Z"
                       style="fill:#ff9300;fill-opacity:0.8039;fill-rule:nonzero;stroke:none"
                       id="path202" /></g></g></g></g></g></g></g></g><g
       id="g212"><g
         id="g214"
         clip-path="url(#clipPath218)"><g
           id="g220"
           clip-path="url(#clipPath224)"><g
             id="g226"
             transform="matrix(1,0,0,-1,13,118)"><g
               id="g228" /><g
               id="g248"><g
                 clip-path="url(#clipPath232)"
                 id="g246"><g
                   id="g238" /><g
                   id="g244"><g
                     clip-path="url(#clipPath236)"
                     id="g242"><path
                       d="M 0,0 H 324 V 25 H 0 Z"
                       style="fill:#cb297b;fill-opacity:0.8004;fill-rule:nonzero;stroke:none"
                       id="path240" /></g></g></g></g></g></g></g></g><g
       id="g250"><g
         id="g252"
         clip-path="url(#clipPath256)"><g
           id="g258"
           clip-path="url(#clipPath262)"><g
             id="g264"
             transform="matrix(1,0,0,-1,13,145)"><g
               id="g266" /><g
               id="g286"><g
                 clip-path="url(#clipPath270)"
                 id="g284"><g
                   id="g276" /><g
                   id="g282"><g
                     clip-path="url(#clipPath274)"
                     id="g280"><path
                       d="M 0,0 H 36 V 24 H 0 Z"
                       style="fill:#1db100;fill-opacity:0.8044;fill-rule:nonzero;stroke:none"
                       id="path278" /></g></g></g></g></g></g></g></g><g
       id="g288"><g
         id="g290"
         clip-path="url(#clipPath294)"><g
           id="g296"
           clip-path="url(#clipPath300)"><g
             id="g302"
             transform="matrix(1,0,0,-1,13,172)"><g
               id="g304" /><g
               id="g324"><g
                 clip-path="url(#clipPath308)"
                 id="g322"><g
                   id="g314" /><g
                   id="g320"><g
                     clip-path="url(#clipPath312)"
                     id="g318"><path
                       d="M 0,0 H 5 V 24 H 0 Z"
                       style="fill:#0076ba;fill-opacity:0.8017;fill-rule:nonzero;stroke:none"
                       id="path316" /></g></g></g></g></g></g></g></g><g
       id="g326"><g
         id="g328"
         clip-path="url(#clipPath332)"><g
           id="g334" /><g
           id="g382"><g
             clip-path="url(#clipPath338)"
             id="g380"><g
               id="g344" /><g
               id="g378"><g
                 clip-path="url(#clipPath342)"
                 id="g376"><g
                   transform="translate(641.1704,47.14003)"
                   id="g350"><text
                     transform="scale(1,-1)"
                     style="font-variant:normal;font-weight:normal;font-size:12px;font-family:HelveticaNeue;-inkscape-font-specification:HelveticaNeue;writing-mode:lr-tb;fill:#a9a9a9;fill-opacity:1;fill-rule:nonzero;stroke:none"
                     id="text348"><tspan
                       x="0 6.6719999 13.344 20.016001 23.351999 30.024"
                       y="0"
                       id="tspan346">145.98</tspan></text></g><g
                   transform="translate(158.3378,74.31173)"
                   id="g356"><text
                     transform="scale(1,-1)"
                     style="font-variant:normal;font-weight:normal;font-size:12px;font-family:HelveticaNeue;-inkscape-font-specification:HelveticaNeue;writing-mode:lr-tb;fill:#a9a9a9;fill-opacity:1;fill-rule:nonzero;stroke:none"
                     id="text354"><tspan
                       x="0 6.6719999 13.344 16.68 23.351999 30.024"
                       y="0"
                       id="tspan352">33.448</tspan></text></g><g
                   transform="translate(339.4107,101.4834)"
                   id="g362"><text
                     transform="scale(1,-1)"
                     style="font-variant:normal;font-weight:normal;font-size:12px;font-family:HelveticaNeue;-inkscape-font-specification:HelveticaNeue;writing-mode:lr-tb;fill:#a9a9a9;fill-opacity:1;fill-rule:nonzero;stroke:none"
                     id="text360"><tspan
                       x="0 6.6719999 13.344 16.68 23.351999"
                       y="0"
                       id="tspan358">75.65</tspan></text></g><g
                   transform="translate(51.56559,128.6551)"
                   id="g368"><text
                     transform="scale(1,-1)"
                     style="font-variant:normal;font-weight:normal;font-size:12px;font-family:HelveticaNeue;-inkscape-font-specification:HelveticaNeue;writing-mode:lr-tb;fill:#a9a9a9;fill-opacity:1;fill-rule:nonzero;stroke:none"
                     id="text366"><tspan
                       x="0 6.6719999 10.008 16.68 23.351999"
                       y="0"
                       id="tspan364">8.563</tspan></text></g><g
                   transform="translate(20.21399,155.8268)"
                   id="g374"><text
                     transform="scale(1,-1)"
                     style="font-variant:normal;font-weight:normal;font-size:12px;font-family:HelveticaNeue;-inkscape-font-specification:HelveticaNeue;writing-mode:lr-tb;fill:#a9a9a9;fill-opacity:1;fill-rule:nonzero;stroke:none"
                     id="text372"><tspan
                       x="0 6.6719999 10.008 16.68 23.351999"
                       y="0"
                       id="tspan370">1.256</tspan></text></g></g></g></g></g><path
           d="m 84,201 h 9 v -10 h -9 z"
           style="fill:#0076ba;fill-opacity:0.8017;fill-rule:nonzero;stroke:none"
           id="path384" /><g
           id="g386"
           transform="translate(99.39082,192.2439)"><text
             transform="scale(1,-1)"
             style="font-variant:normal;font-weight:normal;font-size:10px;font-family:HelveticaNeue;-inkscape-font-specification:HelveticaNeue;writing-mode:lr-tb;fill:#a9a9a9;fill-opacity:1;fill-rule:nonzero;stroke:none"
             id="text390"><tspan
               x="0 5.5599999"
               y="0"
               id="tspan388">hl</tspan></text></g><path
           d="m 179,201 h 9 v -10 h -9 z"
           style="fill:#1db100;fill-opacity:0.8044;fill-rule:nonzero;stroke:none"
           id="path392" /><g
           id="g394"
           transform="translate(194.4867,192.2439)"><text
             transform="scale(1,-1)"
             style="font-variant:normal;font-weight:normal;font-size:10px;font-family:HelveticaNeue;-inkscape-font-specification:HelveticaNeue;writing-mode:lr-tb;fill:#a9a9a9;fill-opacity:1;fill-rule:nonzero;stroke:none"
             id="text398"><tspan
               x="0 5.5599999 7.7800002 13.52 19.26"
               y="0"
               id="tspan396">hlogf</tspan></text></g><path
           d="m 288,201 h 10 v -10 h -10 z"
           style="fill:#cb297b;fill-opacity:0.8004;fill-rule:nonzero;stroke:none"
           id="path400" /><g
           id="g402"
           transform="translate(304.0226,192.2439)"><text
             transform="scale(1,-1)"
             style="font-variant:normal;font-weight:normal;font-size:10px;font-family:HelveticaNeue;-inkscape-font-specification:HelveticaNeue;writing-mode:lr-tb;fill:#a9a9a9;fill-opacity:1;fill-rule:nonzero;stroke:none"
             id="text406"><tspan
               x="0 5.5599999 11.12 19.65 25.02 30.58 32.799999 38.540001"
               y="0"
               id="tspan404">humanlog</tspan></text></g><path
           d="m 420,201 h 9 v -10 h -9 z"
           style="fill:#ff9300;fill-opacity:0.8039;fill-rule:nonzero;stroke:none"
           id="path408" /><g
           id="g410"
           transform="translate(435.6185,192.2439)"><text
             transform="scale(1,-1)"
             style="font-variant:normal;font-weight:normal;font-size:10px;font-family:HelveticaNeue;-inkscape-font-specification:HelveticaNeue;writing-mode:lr-tb;fill:#a9a9a9;fill-opacity:1;fill-rule:nonzero;stroke:none"
             id="text414"><tspan
               x="0 2.96 8.8900003 11.11 16.85"
               y="0"
               id="tspan412">fblog</tspan></text></g><path
           d="m 530,201 h 9 v -10 h -9 z"
           style="fill:#ee220c;fill-opacity:0.8047;fill-rule:nonzero;stroke:none"
           id="path416" /><g
           id="g418"
           transform="translate(545.5244,192.2439)"><text
             transform="scale(1,-1)"
             style="font-variant:normal;font-weight:normal;font-size:10px;font-family:HelveticaNeue;-inkscape-font-specification:HelveticaNeue;writing-mode:lr-tb;fill:#a9a9a9;fill-opacity:1;fill-rule:nonzero;stroke:none"
             id="text422"><tspan
               x="0 2.96 8.8900003 11.11 16.85 22.59 25.370001 29.26"
               y="0"
               id="tspan420">fblog -d</tspan></text></g></g></g></g></svg>
