<svg
    width="100%"
    height="100%"
    version="1.1"
    overflow="visible"
    viewBox="-40 -40 1480 834.72"
    xmlns="http://www.w3.org/2000/svg"
>
  <filter color-interpolation-filters="sRGB" filterUnits="userSpaceOnUse" id="blur" >
    <feGaussianBlur in="SourceGraphic" result="Blur" stdDeviation="15" />
  </filter>
  <g filter="url(#blur)">
    <rect x="5" y="7.5" width="1380" height="754.72" fill="black" opacity="0.75" />
  </g>

  <svg xmlns="http://www.w3.org/2000/svg" xmlns:xlink="http://www.w3.org/1999/xlink" width="1380" height="754.72">
  <rect width="1380" height="754.72" rx="5" ry="5" class="a"/>
  <svg y="0%" x="0%">
  <circle cx="20" cy="20" r="6" fill="#ff5f58"/>
  <circle cx="40" cy="20" r="6" fill="#ffbd2e"/>
  <circle cx="60" cy="20" r="6" fill="#18c132"/>
  </svg>
  <svg height="694.72" viewBox="0 0 134 69.472" width="1340" x="15" xmlns="http://www.w3.org/2000/svg" xmlns:xlink="http://www.w3.org/1999/xlink" y="50">
  <style>
  .a{fill:#282d35}.h,.i,.j,.k,.l{fill:#636d83;white-space:pre}.i,.j,.k,.l{fill:#56b6c2}.j,.k,.l{fill:#cfd7e5}.k,.l{fill:#61afef}.l{fill:#abb2bf}.m{fill:#b9c0cb}.n,.o,.p{fill:#282d35;white-space:pre}.o,.p{fill:#f4a460}.p{fill:#98c379}
  </style>
  <style>
  @import url('https://fonts.googleapis.com/css2?family=Roboto+Mono:ital,wght@0,100..700;1,100..700&amp;display=swap')
  </style>
  <g font-family="Roboto Mono" font-size="1.67"><defs><symbol id="a"><path fill="transparent" d="M0 0h134v32H0z"/></symbol><symbol id="b"><path fill="#6f7683" d="M0 0h1.102v2.171H0z"/></symbol></defs><path class="a" d="M0 0h134v69.472H0z"/><svg width="134"><svg><use xlink:href="#a"/><use xlink:href="#b" x=".996" y="67.276"/><text y="1.67" class="h">2023-12-07</text><text x="11.022" y="1.67" class="h">20:07:05.949</text><text x="24.048" y="1.67" class="h">│</text><text x="25.05" y="1.67" class="i">INF</text><text x="28.056" y="1.67" class="h">│</text><text x="30.06" y="1.67" class="j">No</text><text x="33.066" y="1.67" class="j">time</text><text x="38.076" y="1.67" class="j">or</text><text x="41.082" y="1.67" class="j">size</text><text x="46.092" y="1.67" class="j">retention</text><text x="56.112" y="1.67" class="j">was</text><text x="60.12" y="1.67" class="j">set</text><text x="64.128" y="1.67" class="j">so</text><text x="67.134" y="1.67" class="j">using</text><text x="73.146" y="1.67" class="j">the</text><text x="77.154" y="1.67" class="j">default</text><text x="85.17" y="1.67" class="j">time</text><text x="90.18" y="1.67" class="j">retention</text><text x="100.2" y="1.67" class="k">duration</text><text x="108.216" y="1.67" class="h">=</text><text x="109.218" y="1.67" class="l">15d</text><text x="113.226" y="1.67" class="h">→</text><text x="115.23" y="1.67" class="h">main.go:539</text><text y="3.841" class="h">2023-12-07</text><text x="11.022" y="3.841" class="h">20:07:05.949</text><text x="24.048" y="3.841" class="h">│</text><text x="25.05" y="3.841" class="i">INF</text><text x="28.056" y="3.841" class="h">│</text><text x="30.06" y="3.841" class="j">Starting</text><text x="39.078" y="3.841" class="j">Prometheus</text><text x="50.1" y="3.841" class="j">Server</text><text x="57.114" y="3.841" class="k">mode</text><text x="61.122" y="3.841" class="h">=</text><text x="62.124" y="3.841" class="l">server</text><text x="69.138" y="3.841" class="k">version</text><text x="76.152" y="3.841" class="h">=</text><text x="77.154" y="3.841" class="l">&quot;(version=2.48.0,</text><text x="95.19" y="3.841" class="l">branch=HEAD,</text><text x="108.216" y="3.841" class="l">revision=6d80b30990bc297d</text><path class="m" d="M133.266 2.171h1v2.171h-1z"/><text x="133.266" y="3.841" class="n">&gt;</text><text y="6.012" class="h">2023-12-07</text><text x="11.022" y="6.012" class="h">20:07:05.949</text><text x="24.048" y="6.012" class="h">│</text><text x="25.05" y="6.012" class="i">INF</text><text x="28.056" y="6.012" class="h">│</text><text x="30.06" y="6.012" class="k">build-context</text><text x="43.086" y="6.012" class="h">=</text><text x="44.088" y="6.012" class="l">&quot;(go=go1.21.4,</text><text x="59.118" y="6.012" class="l">platform=linux/arm64,</text><text x="81.162" y="6.012" class="l">user=root@26117804242c,</text><text x="105.21" y="6.012" class="l">date=20231116-04:38:59,</text><text x="129.258" y="6.012" class="l">tags</text><path class="m" d="M133.266 4.342h1v2.171h-1z"/><text x="133.266" y="6.012" class="n">&gt;</text><text y="8.183" class="h">2023-12-07</text><text x="11.022" y="8.183" class="h">20:07:05.949</text><text x="24.048" y="8.183" class="h">│</text><text x="25.05" y="8.183" class="i">INF</text><text x="28.056" y="8.183" class="h">│</text><text x="30.06" y="8.183" class="k">host-details</text><text x="42.084" y="8.183" class="h">=</text><text x="43.086" y="8.183" class="l">&quot;(Linux</text><text x="51.102" y="8.183" class="l">6.5.11-linuxkit</text><text x="67.134" y="8.183" class="l">#1</text><text x="70.14" y="8.183" class="l">SMP</text><text x="74.148" y="8.183" class="l">PREEMPT</text><text x="82.164" y="8.183" class="l">Mon</text><text x="86.172" y="8.183" class="l">Dec</text><text x="91.182" y="8.183" class="l">4</text><text x="93.186" y="8.183" class="l">11:30:00</text><text x="102.204" y="8.183" class="l">UTC</text><text x="106.212" y="8.183" class="l">2023</text><text x="111.222" y="8.183" class="l">aarch64</text><text x="119.238" y="8.183" class="l">b2ed53d333d7</text><text x="132.264" y="8.183" class="l">(</text><path class="m" d="M133.266 6.513h1v2.171h-1z"/><text x="133.266" y="8.183" class="n">&gt;</text><text y="10.354" class="h">2023-12-07</text><text x="11.022" y="10.354" class="h">20:07:05.949</text><text x="24.048" y="10.354" class="h">│</text><text x="25.05" y="10.354" class="i">INF</text><text x="28.056" y="10.354" class="h">│</text><text x="30.06" y="10.354" class="k">fd-limits</text><text x="39.078" y="10.354" class="h">=</text><text x="40.08" y="10.354" class="l">&quot;(soft=1048576,</text><text x="56.112" y="10.354" class="l">hard=1048576)&quot;</text><text x="71.142" y="10.354" class="h">→</text><text x="73.146" y="10.354" class="h">main.go:590</text><text y="12.525" class="h">2023-12-07</text><text x="11.022" y="12.525" class="h">20:07:05.949</text><text x="24.048" y="12.525" class="h">│</text><text x="25.05" y="12.525" class="i">INF</text><text x="28.056" y="12.525" class="h">│</text><text x="30.06" y="12.525" class="k">vm-limits</text><text x="39.078" y="12.525" class="h">=</text><text x="40.08" y="12.525" class="l">&quot;(soft=unlimited,</text><text x="58.116" y="12.525" class="l">hard=unlimited)&quot;</text><text x="75.15" y="12.525" class="h">→</text><text x="77.154" y="12.525" class="h">main.go:591</text><text y="14.696" class="h">2023-12-07</text><text x="11.022" y="14.696" class="h">20:07:05.949</text><text x="24.048" y="14.696" class="h">│</text><text x="25.05" y="14.696" class="i">INF</text><text x="28.056" y="14.696" class="h">│</text><text x="30.06" y="14.696" class="j">Start</text><text x="36.072" y="14.696" class="j">listening</text><text x="46.092" y="14.696" class="j">for</text><text x="50.1" y="14.696" class="j">connections</text><text x="62.124" y="14.696" class="k">address</text><text x="69.138" y="14.696" class="h">=</text><text x="70.14" y="14.696" class="l">0.0.0.0:9090</text><text x="83.166" y="14.696" class="k">component</text><text x="92.184" y="14.696" class="h">=</text><text x="93.186" y="14.696" class="l">web</text><text x="97.194" y="14.696" class="h">→</text><text x="99.198" y="14.696" class="h">web.go:566</text><text y="16.867" class="h">2023-12-07</text><text x="11.022" y="16.867" class="h">20:07:05.950</text><text x="24.048" y="16.867" class="h">│</text><text x="25.05" y="16.867" class="i">INF</text><text x="28.056" y="16.867" class="h">│</text><text x="30.06" y="16.867" class="j">Starting</text><text x="39.078" y="16.867" class="j">TSDB</text><text x="44.088" y="16.867" class="j">...</text><text x="48.096" y="16.867" class="h">→</text><text x="50.1" y="16.867" class="h">main.go:1024</text><text y="19.038" class="h">2023-12-07</text><text x="11.022" y="19.038" class="h">20:07:05.950</text><text x="24.048" y="19.038" class="h">│</text><text x="25.05" y="19.038" class="i">INF</text><text x="28.056" y="19.038" class="h">│</text><text x="30.06" y="19.038" class="j">Listening</text><text x="40.08" y="19.038" class="j">on</text><text x="43.086" y="19.038" class="k">address</text><text x="50.1" y="19.038" class="h">=</text><text x="51.102" y="19.038" class="l">&quot;[::]:9090&quot;</text><text x="63.126" y="19.038" class="k">component</text><text x="72.144" y="19.038" class="h">=</text><text x="73.146" y="19.038" class="l">web</text><text x="77.154" y="19.038" class="h">→</text><text x="79.158" y="19.038" class="h">tls_config.go:274</text><text y="21.209" class="h">2023-12-07</text><text x="11.022" y="21.209" class="h">20:07:05.950</text><text x="24.048" y="21.209" class="h">│</text><text x="25.05" y="21.209" class="i">INF</text><text x="28.056" y="21.209" class="h">│</text><text x="30.06" y="21.209" class="j">TLS</text><text x="34.068" y="21.209" class="j">is</text><text x="37.074" y="21.209" class="j">disabled.</text><text x="47.094" y="21.209" class="k">address</text><text x="54.108" y="21.209" class="h">=</text><text x="55.11" y="21.209" class="l">&quot;[::]:9090&quot;</text><text x="67.134" y="21.209" class="k">component</text><text x="76.152" y="21.209" class="h">=</text><text x="77.154" y="21.209" class="l">web</text><text x="81.162" y="21.209" class="k">http2</text><text x="86.172" y="21.209" class="h">=</text><text x="87.174" y="21.209" class="o">false</text><text x="93.186" y="21.209" class="h">→</text><text x="95.19" y="21.209" class="h">tls_config.go:277</text><text y="23.38" class="h">2023-12-07</text><text x="11.022" y="23.38" class="h">20:07:05.952</text><text x="24.048" y="23.38" class="h">│</text><text x="25.05" y="23.38" class="i">INF</text><text x="28.056" y="23.38" class="h">│</text><text x="30.06" y="23.38" class="j">Replaying</text><text x="40.08" y="23.38" class="j">on-disk</text><text x="48.096" y="23.38" class="j">memory</text><text x="55.11" y="23.38" class="j">mappable</text><text x="64.128" y="23.38" class="j">chunks</text><text x="71.142" y="23.38" class="j">if</text><text x="74.148" y="23.38" class="j">any</text><text x="78.156" y="23.38" class="k">component</text><text x="87.174" y="23.38" class="h">=</text><text x="88.176" y="23.38" class="l">tsdb</text><text x="93.186" y="23.38" class="h">→</text><text x="95.19" y="23.38" class="h">head.go:601</text><text y="25.551" class="h">2023-12-07</text><text x="11.022" y="25.551" class="h">20:07:05.952</text><text x="24.048" y="25.551" class="h">│</text><text x="25.05" y="25.551" class="i">INF</text><text x="28.056" y="25.551" class="h">│</text><text x="30.06" y="25.551" class="j">On-disk</text><text x="38.076" y="25.551" class="j">memory</text><text x="45.09" y="25.551" class="j">mappable</text><text x="54.108" y="25.551" class="j">chunks</text><text x="61.122" y="25.551" class="j">replay</text><text x="68.136" y="25.551" class="j">completed</text><text x="78.156" y="25.551" class="k">component</text><text x="87.174" y="25.551" class="h">=</text><text x="88.176" y="25.551" class="l">tsdb</text><text x="93.186" y="25.551" class="k">duration</text><text x="101.202" y="25.551" class="h">=</text><text x="102.204" y="25.551" class="l">1.416µs</text><text x="110.22" y="25.551" class="h">→</text><text x="112.224" y="25.551" class="h">head.go:682</text><text y="27.722" class="h">2023-12-07</text><text x="11.022" y="27.722" class="h">20:07:05.952</text><text x="24.048" y="27.722" class="h">│</text><text x="25.05" y="27.722" class="i">INF</text><text x="28.056" y="27.722" class="h">│</text><text x="30.06" y="27.722" class="j">Replaying</text><text x="40.08" y="27.722" class="j">WAL,</text><text x="45.09" y="27.722" class="j">this</text><text x="50.1" y="27.722" class="j">may</text><text x="54.108" y="27.722" class="j">take</text><text x="59.118" y="27.722" class="j">a</text><text x="61.122" y="27.722" class="j">while</text><text x="67.134" y="27.722" class="k">component</text><text x="76.152" y="27.722" class="h">=</text><text x="77.154" y="27.722" class="l">tsdb</text><text x="82.164" y="27.722" class="h">→</text><text x="84.168" y="27.722" class="h">head.go:690</text><text y="29.893" class="h">2023-12-07</text><text x="11.022" y="29.893" class="h">20:07:05.952</text><text x="24.048" y="29.893" class="h">│</text><text x="25.05" y="29.893" class="i">INF</text><text x="28.056" y="29.893" class="h">│</text><text x="30.06" y="29.893" class="j">WAL</text><text x="34.068" y="29.893" class="j">segment</text><text x="42.084" y="29.893" class="j">loaded</text><text x="49.098" y="29.893" class="k">component</text><text x="58.116" y="29.893" class="h">=</text><text x="59.118" y="29.893" class="l">tsdb</text><text x="64.128" y="29.893" class="k">maxSegment</text><text x="74.148" y="29.893" class="h">=</text><text x="75.15" y="29.893" class="p">0</text><text x="77.154" y="29.893" class="k">segment</text><text x="84.168" y="29.893" class="h">=</text><text x="85.17" y="29.893" class="p">0</text><text x="87.174" y="29.893" class="h">→</text><text x="89.178" y="29.893" class="h">head.go:761</text><text y="32.064" class="h">2023-12-07</text><text x="11.022" y="32.064" class="h">20:07:05.952</text><text x="24.048" y="32.064" class="h">│</text><text x="25.05" y="32.064" class="i">INF</text><text x="28.056" y="32.064" class="h">│</text><text x="30.06" y="32.064" class="j">WAL</text><text x="34.068" y="32.064" class="j">replay</text><text x="41.082" y="32.064" class="j">completed</text><text x="51.102" y="32.064" class="k">checkpoint-replay-duration</text><text x="77.154" y="32.064" class="h">=</text><text x="78.156" y="32.064" class="l">16.875µs</text><text x="87.174" y="32.064" class="k">component</text><text x="96.192" y="32.064" class="h">=</text><text x="97.194" y="32.064" class="l">tsdb</text><text x="102.204" y="32.064" class="k">total-replay-duration</text><text x="123.246" y="32.064" class="h">=</text><text x="124.248" y="32.064" class="l">186.042µs</text><path class="m" d="M133.266 30.394h1v2.171h-1z"/><text x="133.266" y="32.064" class="n">&gt;</text><text y="34.235" class="h">2023-12-07</text><text x="11.022" y="34.235" class="h">20:07:05.953</text><text x="24.048" y="34.235" class="h">│</text><text x="25.05" y="34.235" class="i">INF</text><text x="28.056" y="34.235" class="h">│</text><text x="30.06" y="34.235" class="k">fs-type</text><text x="37.074" y="34.235" class="h">=</text><text x="38.076" y="34.235" class="l">EXT4_SUPER_MAGIC</text><text x="55.11" y="34.235" class="h">→</text><text x="57.114" y="34.235" class="h">main.go:1045</text><text y="36.406" class="h">2023-12-07</text><text x="11.022" y="36.406" class="h">20:07:05.953</text><text x="24.048" y="36.406" class="h">│</text><text x="25.05" y="36.406" class="i">INF</text><text x="28.056" y="36.406" class="h">│</text><text x="30.06" y="36.406" class="j">TSDB</text><text x="35.07" y="36.406" class="j">started</text><text x="43.086" y="36.406" class="h">→</text><text x="45.09" y="36.406" class="h">main.go:1048</text><text y="38.577" class="h">2023-12-07</text><text x="11.022" y="38.577" class="h">20:07:05.953</text><text x="24.048" y="38.577" class="h">│</text><text x="25.05" y="38.577" class="i">INF</text><text x="28.056" y="38.577" class="h">│</text><text x="30.06" y="38.577" class="j">Loading</text><text x="38.076" y="38.577" class="j">configuration</text><text x="52.104" y="38.577" class="j">file</text><text x="57.114" y="38.577" class="k">filename</text><text x="65.13" y="38.577" class="h">=</text><text x="66.132" y="38.577" class="l">/etc/prometheus/prometheus.yml</text><text x="97.194" y="38.577" class="h">→</text><text x="99.198" y="38.577" class="h">main.go:1229</text><text y="40.748" class="h">2023-12-07</text><text x="11.022" y="40.748" class="h">20:07:05.953</text><text x="24.048" y="40.748" class="h">│</text><text x="25.05" y="40.748" class="i">INF</text><text x="28.056" y="40.748" class="h">│</text><text x="30.06" y="40.748" class="j">Completed</text><text x="40.08" y="40.748" class="j">loading</text><text x="48.096" y="40.748" class="j">of</text><text x="51.102" y="40.748" class="j">configuration</text><text x="65.13" y="40.748" class="j">file</text><text x="70.14" y="40.748" class="k">db-storage</text><text x="80.16" y="40.748" class="h">=</text><text x="81.162" y="40.748" class="l">1.041µs</text><text x="89.178" y="40.748" class="k">filename</text><text x="97.194" y="40.748" class="h">=</text><text x="98.196" y="40.748" class="l">/etc/prometheus/prometheus.yml</text><text x="129.258" y="40.748" class="k">noti</text><path class="m" d="M133.266 39.078h1v2.171h-1z"/><text x="133.266" y="40.748" class="n">&gt;</text><text y="42.919" class="h">2023-12-07</text><text x="11.022" y="42.919" class="h">20:07:05.953</text><text x="24.048" y="42.919" class="h">│</text><text x="25.05" y="42.919" class="i">INF</text><text x="28.056" y="42.919" class="h">│</text><text x="30.06" y="42.919" class="j">Server</text><text x="37.074" y="42.919" class="j">is</text><text x="40.08" y="42.919" class="j">ready</text><text x="46.092" y="42.919" class="j">to</text><text x="49.098" y="42.919" class="j">receive</text><text x="57.114" y="42.919" class="j">web</text><text x="61.122" y="42.919" class="j">requests.</text><text x="71.142" y="42.919" class="h">→</text><text x="73.146" y="42.919" class="h">main.go:1009</text><text y="45.09" class="h">2023-12-07</text><text x="11.022" y="45.09" class="h">20:07:05.953</text><text x="24.048" y="45.09" class="h">│</text><text x="25.05" y="45.09" class="i">INF</text><text x="28.056" y="45.09" class="h">│</text><text x="30.06" y="45.09" class="j">Starting</text><text x="39.078" y="45.09" class="j">rule</text><text x="44.088" y="45.09" class="j">manager...</text><text x="55.11" y="45.09" class="k">component</text><text x="64.128" y="45.09" class="h">=</text><text x="65.13" y="45.09" class="l">&quot;rule</text><text x="71.142" y="45.09" class="l">manager&quot;</text><text x="80.16" y="45.09" class="h">→</text><text x="82.164" y="45.09" class="h">manager.go:1012</text><text y="47.261" class="h">2023-12-07</text><text x="11.022" y="47.261" class="h">20:11:30.732</text><text x="24.048" y="47.261" class="h">│</text><text x="25.05" y="47.261" class="o">WRN</text><text x="28.056" y="47.261" class="h">│</text><text x="30.06" y="47.261" class="o">Received</text><text x="39.078" y="47.261" class="o">SIGTERM,</text><text x="48.096" y="47.261" class="o">exiting</text><text x="56.112" y="47.261" class="o">gracefully...</text><text x="70.14" y="47.261" class="h">→</text><text x="72.144" y="47.261" class="h">main.go:859</text><text y="49.432" class="h">2023-12-07</text><text x="11.022" y="49.432" class="h">20:11:30.732</text><text x="24.048" y="49.432" class="h">│</text><text x="25.05" y="49.432" class="i">INF</text><text x="28.056" y="49.432" class="h">│</text><text x="30.06" y="49.432" class="j">Stopping</text><text x="39.078" y="49.432" class="j">scrape</text><text x="46.092" y="49.432" class="j">discovery</text><text x="56.112" y="49.432" class="j">manager...</text><text x="67.134" y="49.432" class="h">→</text><text x="69.138" y="49.432" class="h">main.go:883</text><text y="51.603" class="h">2023-12-07</text><text x="11.022" y="51.603" class="h">20:11:30.732</text><text x="24.048" y="51.603" class="h">│</text><text x="25.05" y="51.603" class="i">INF</text><text x="28.056" y="51.603" class="h">│</text><text x="30.06" y="51.603" class="j">Stopping</text><text x="39.078" y="51.603" class="j">notify</text><text x="46.092" y="51.603" class="j">discovery</text><text x="56.112" y="51.603" class="j">manager...</text><text x="67.134" y="51.603" class="h">→</text><text x="69.138" y="51.603" class="h">main.go:897</text><text y="53.774" class="h">2023-12-07</text><text x="11.022" y="53.774" class="h">20:11:30.732</text><text x="24.048" y="53.774" class="h">│</text><text x="25.05" y="53.774" class="i">INF</text><text x="28.056" y="53.774" class="h">│</text><text x="30.06" y="53.774" class="j">Stopping</text><text x="39.078" y="53.774" class="j">rule</text><text x="44.088" y="53.774" class="j">manager...</text><text x="55.11" y="53.774" class="k">component</text><text x="64.128" y="53.774" class="h">=</text><text x="65.13" y="53.774" class="l">&quot;rule</text><text x="71.142" y="53.774" class="l">manager&quot;</text><text x="80.16" y="53.774" class="h">→</text><text x="82.164" y="53.774" class="h">manager.go:1026</text><text y="55.945" class="h">2023-12-07</text><text x="11.022" y="55.945" class="h">20:11:30.732</text><text x="24.048" y="55.945" class="h">│</text><text x="25.05" y="55.945" class="i">INF</text><text x="28.056" y="55.945" class="h">│</text><text x="30.06" y="55.945" class="j">Rule</text><text x="35.07" y="55.945" class="j">manager</text><text x="43.086" y="55.945" class="j">stopped</text><text x="51.102" y="55.945" class="k">component</text><text x="60.12" y="55.945" class="h">=</text><text x="61.122" y="55.945" class="l">&quot;rule</text><text x="67.134" y="55.945" class="l">manager&quot;</text><text x="76.152" y="55.945" class="h">→</text><text x="78.156" y="55.945" class="h">manager.go:1036</text><text y="58.116" class="h">2023-12-07</text><text x="11.022" y="58.116" class="h">20:11:30.732</text><text x="24.048" y="58.116" class="h">│</text><text x="25.05" y="58.116" class="i">INF</text><text x="28.056" y="58.116" class="h">│</text><text x="30.06" y="58.116" class="j">Stopping</text><text x="39.078" y="58.116" class="j">scrape</text><text x="46.092" y="58.116" class="j">manager...</text><text x="57.114" y="58.116" class="h">→</text><text x="59.118" y="58.116" class="h">main.go:934</text><text y="60.287" class="h">2023-12-07</text><text x="11.022" y="60.287" class="h">20:11:30.732</text><text x="24.048" y="60.287" class="h">│</text><text x="25.05" y="60.287" class="i">INF</text><text x="28.056" y="60.287" class="h">│</text><text x="30.06" y="60.287" class="j">Notify</text><text x="37.074" y="60.287" class="j">discovery</text><text x="47.094" y="60.287" class="j">manager</text><text x="55.11" y="60.287" class="j">stopped</text><text x="63.126" y="60.287" class="h">→</text><text x="65.13" y="60.287" class="h">main.go:893</text><text y="62.458" class="h">2023-12-07</text><text x="11.022" y="62.458" class="h">20:11:30.732</text><text x="24.048" y="62.458" class="h">│</text><text x="25.05" y="62.458" class="i">INF</text><text x="28.056" y="62.458" class="h">│</text><text x="30.06" y="62.458" class="j">Scrape</text><text x="37.074" y="62.458" class="j">discovery</text><text x="47.094" y="62.458" class="j">manager</text><text x="55.11" y="62.458" class="j">stopped</text><text x="63.126" y="62.458" class="h">→</text><text x="65.13" y="62.458" class="h">main.go:879</text><text y="64.629" class="h">2023-12-07</text><text x="11.022" y="64.629" class="h">20:11:30.733</text><text x="24.048" y="64.629" class="h">│</text><text x="25.05" y="64.629" class="i">INF</text><text x="28.056" y="64.629" class="h">│</text><text x="30.06" y="64.629" class="j">Scrape</text><text x="37.074" y="64.629" class="j">manager</text><text x="45.09" y="64.629" class="j">stopped</text><text x="53.106" y="64.629" class="h">→</text><text x="55.11" y="64.629" class="h">main.go:926</text><text y="66.8" class="h">2023-12-07</text><text x="11.022" y="66.8" class="h">20:11:30.735</text><text x="24.048" y="66.8" class="h">│</text><text x="25.05" y="66.8" class="i">INF</text><text x="28.056" y="66.8" class="h">│</text><text x="30.06" y="66.8" class="j">Stopping</text><text x="39.078" y="66.8" class="j">notification</text><text x="52.104" y="66.8" class="j">manager...</text><text x="63.126" y="66.8" class="k">component</text><text x="72.144" y="66.8" class="h">=</text><text x="73.146" y="66.8" class="l">notifier</text><text x="82.164" y="66.8" class="h">→</text><text x="84.168" y="66.8" class="h">notifier.go:604</text><text y="68.971" style="white-space:pre" fill="#b9c0cb">:</text></svg></svg></g></svg></svg>
</svg>
