<?xml version="1.0" encoding="UTF-8" standalone="no"?>
<svg
   xmlns:dc="http://purl.org/dc/elements/1.1/"
   xmlns:cc="http://creativecommons.org/ns#"
   xmlns:rdf="http://www.w3.org/1999/02/22-rdf-syntax-ns#"
   xmlns:svg="http://www.w3.org/2000/svg"
   xmlns="http://www.w3.org/2000/svg"
   viewBox="0 0 943.55334 269.112"
   height="269.112"
   width="943.55334"
   xml:space="preserve"
   id="svg2"
   version="1.1"><metadata
     id="metadata8"><rdf:RDF><cc:Work
         rdf:about=""><dc:format>image/svg+xml</dc:format><dc:type
           rdf:resource="http://purl.org/dc/dcmitype/StillImage" /></cc:Work></rdf:RDF></metadata><defs
     id="defs6"><clipPath
       id="clipPath20"
       clipPathUnits="userSpaceOnUse"><path
         id="path18"
         d="M 0,0 H 707.665 V 201.834 H 0 Z" /></clipPath><clipPath
       id="clipPath48"
       clipPathUnits="userSpaceOnUse"><path
         id="path46"
         d="m 0,98.89947 h 2 v 13.72 H 0 Z" /></clipPath><clipPath
       id="clipPath58"
       clipPathUnits="userSpaceOnUse"><path
         id="path56"
         d="m 12.32497,0 h 686.5 v 17.58 h -686.5 z" /></clipPath><clipPath
       id="clipPath72"
       clipPathUnits="userSpaceOnUse"><path
         id="path70"
         d="m 8.044966,16.58 h 8.56 V 30.3 h -8.56 z" /></clipPath><clipPath
       id="clipPath86"
       clipPathUnits="userSpaceOnUse"><path
         id="path84"
         d="m 176.89,16.58 h 14.12 V 30.3 h -14.12 z" /></clipPath><clipPath
       id="clipPath100"
       clipPathUnits="userSpaceOnUse"><path
         id="path98"
         d="m 348.515,16.58 h 14.12 V 30.3 h -14.12 z" /></clipPath><clipPath
       id="clipPath114"
       clipPathUnits="userSpaceOnUse"><path
         id="path112"
         d="m 517.36,16.58 h 19.68 V 30.3 h -19.68 z" /></clipPath><clipPath
       id="clipPath128"
       clipPathUnits="userSpaceOnUse"><path
         id="path126"
         d="m 688.985,16.58 h 18.68 V 30.3 h -18.68 z" /></clipPath><clipPath
       id="clipPath142"
       clipPathUnits="userSpaceOnUse"><path
         id="path140"
         d="M 16.95049,59 H 633.0495 c 1.1593,0 1.8548,0 2.3185,-0.19359 0.6685,-0.24331 1.1951,-0.76989 1.4384,-1.43836 C 637,56.90434 637,56.20878 637,55.04951 V 41.95049 c 0,-1.15927 0,-1.85483 -0.1936,-2.31854 -0.2433,-0.66847 -0.7699,-1.19505 -1.4384,-1.43836 C 634.9043,38 634.2088,38 633.0495,38 H 16.95049 c -1.15927,0 -1.85483,0 -2.31854,0.19359 -0.66847,0.24331 -1.19505,0.76989 -1.43836,1.43836 C 13,40.09566 13,40.79122 13,41.95049 v 13.09902 c 0,1.15927 0,1.85483 0.19359,2.31854 0.24331,0.66847 0.76989,1.19505 1.43836,1.43836 C 15.09566,59 15.79122,59 16.95049,59 Z" /></clipPath><clipPath
       id="clipPath148"
       clipPathUnits="userSpaceOnUse"><path
         id="path146"
         d="M 13,38 H 637 V 59 H 13 Z" /></clipPath><clipPath
       id="clipPath156"
       clipPathUnits="userSpaceOnUse"><path
         id="path154"
         d="M 0,0 H 624 V 21 H 0 Z" /></clipPath><clipPath
       id="clipPath160"
       clipPathUnits="userSpaceOnUse"><path
         id="path158"
         d="M 0,0 H 624 V 21 H 0 Z" /></clipPath><clipPath
       id="clipPath180"
       clipPathUnits="userSpaceOnUse"><path
         id="path178"
         d="M 16.95049,82 H 139.0495 c 1.1593,0 1.8548,0 2.3185,-0.19359 0.6685,-0.24331 1.1951,-0.76989 1.4384,-1.43836 C 143,79.90434 143,79.20878 143,78.04951 V 64.95049 c 0,-1.15927 0,-1.85483 -0.1936,-2.31854 -0.2433,-0.66847 -0.7699,-1.19505 -1.4384,-1.43836 C 140.9043,61 140.2088,61 139.0495,61 H 16.95049 c -1.15927,0 -1.85483,0 -2.31854,0.19359 -0.66847,0.24331 -1.19505,0.76989 -1.43836,1.43836 C 13,63.09566 13,63.79122 13,64.95049 v 13.09902 c 0,1.15927 0,1.85483 0.19359,2.31854 0.24331,0.66847 0.76989,1.19505 1.43836,1.43836 C 15.09566,82 15.79122,82 16.95049,82 Z" /></clipPath><clipPath
       id="clipPath186"
       clipPathUnits="userSpaceOnUse"><path
         id="path184"
         d="M 13,61 H 143 V 82 H 13 Z" /></clipPath><clipPath
       id="clipPath194"
       clipPathUnits="userSpaceOnUse"><path
         id="path192"
         d="M 0,0 H 130 V 21 H 0 Z" /></clipPath><clipPath
       id="clipPath198"
       clipPathUnits="userSpaceOnUse"><path
         id="path196"
         d="M 0,0 H 130 V 21 H 0 Z" /></clipPath><clipPath
       id="clipPath218"
       clipPathUnits="userSpaceOnUse"><path
         id="path216"
         d="M 16.95049,105 H 478.0495 c 1.1593,0 1.8548,0 2.3185,-0.1936 0.6685,-0.2433 1.1951,-0.7699 1.4384,-1.4384 C 482,102.9043 482,102.2088 482,101.0495 V 87.95049 c 0,-1.15927 0,-1.85483 -0.1936,-2.31854 -0.2433,-0.66847 -0.7699,-1.19505 -1.4384,-1.43836 C 479.9043,84 479.2088,84 478.0495,84 H 16.95049 c -1.15927,0 -1.85483,0 -2.31854,0.19359 -0.66847,0.24331 -1.19505,0.76989 -1.43836,1.43836 C 13,86.09566 13,86.79122 13,87.95049 v 13.09901 c 0,1.1593 0,1.8548 0.19359,2.3185 0.24331,0.6685 0.76989,1.1951 1.43836,1.4384 C 15.09566,105 15.79122,105 16.95049,105 Z" /></clipPath><clipPath
       id="clipPath224"
       clipPathUnits="userSpaceOnUse"><path
         id="path222"
         d="m 13,84 h 469 v 21 H 13 Z" /></clipPath><clipPath
       id="clipPath232"
       clipPathUnits="userSpaceOnUse"><path
         id="path230"
         d="M 0,0 H 469 V 21 H 0 Z" /></clipPath><clipPath
       id="clipPath236"
       clipPathUnits="userSpaceOnUse"><path
         id="path234"
         d="M 0,0 H 469 V 21 H 0 Z" /></clipPath><clipPath
       id="clipPath256"
       clipPathUnits="userSpaceOnUse"><path
         id="path254"
         d="m 16.95049,128 h 25.09902 c 1.15927,0 1.85483,0 2.31854,-0.1936 0.66847,-0.2433 1.19505,-0.7699 1.43836,-1.4384 C 46,125.9043 46,125.2088 46,124.0495 v -13.099 c 0,-1.1593 0,-1.8548 -0.19359,-2.3185 -0.24331,-0.6685 -0.76989,-1.1951 -1.43836,-1.4384 C 43.90434,107 43.20878,107 42.04951,107 H 16.95049 c -1.15927,0 -1.85483,0 -2.31854,0.1936 -0.66847,0.2433 -1.19505,0.7699 -1.43836,1.4384 C 13,109.0957 13,109.7912 13,110.9505 v 13.099 c 0,1.1593 0,1.8548 0.19359,2.3185 0.24331,0.6685 0.76989,1.1951 1.43836,1.4384 C 15.09566,128 15.79122,128 16.95049,128 Z" /></clipPath><clipPath
       id="clipPath262"
       clipPathUnits="userSpaceOnUse"><path
         id="path260"
         d="m 13,107 h 33 v 21 H 13 Z" /></clipPath><clipPath
       id="clipPath270"
       clipPathUnits="userSpaceOnUse"><path
         id="path268"
         d="M 0,0 H 33 V 21 H 0 Z" /></clipPath><clipPath
       id="clipPath274"
       clipPathUnits="userSpaceOnUse"><path
         id="path272"
         d="M 0,0 H 33 V 21 H 0 Z" /></clipPath><clipPath
       id="clipPath294"
       clipPathUnits="userSpaceOnUse"><path
         id="path292"
         d="m 15,150 c 0.2333,0 0.46481,-0.0502 0.68404,-0.1484 0.55553,-0.2489 0.99315,-0.7874 1.19535,-1.471 C 17,147.952 17,147.3091 17,146.2376 v -12.4752 c 0,-1.0715 0,-1.7144 -0.12061,-2.143 -0.2022,-0.6836 -0.63982,-1.2221 -1.19535,-1.471 C 15.46481,130.0502 15.2333,130 15,130 c -0.2333,0 -0.46481,0.0502 -0.68404,0.1484 -0.55553,0.2489 -0.99315,0.7874 -1.19535,1.471 C 13,132.048 13,132.6909 13,133.7624 v 12.4752 c 0,1.0715 0,1.7144 0.12061,2.143 0.2022,0.6836 0.63982,1.2221 1.19535,1.471 C 14.53519,149.9498 14.7667,150 15,150 Z" /></clipPath><clipPath
       id="clipPath300"
       clipPathUnits="userSpaceOnUse"><path
         id="path298"
         d="m 13,130 h 4 v 20 h -4 z" /></clipPath><clipPath
       id="clipPath308"
       clipPathUnits="userSpaceOnUse"><path
         id="path306"
         d="M 0,0 H 4 V 20 H 0 Z" /></clipPath><clipPath
       id="clipPath312"
       clipPathUnits="userSpaceOnUse"><path
         id="path310"
         d="M 0,0 H 4 V 20 H 0 Z" /></clipPath><clipPath
       id="clipPath332"
       clipPathUnits="userSpaceOnUse"><path
         id="path330"
         d="m 14.5,173 c 0.17498,0 0.34861,-0.0527 0.51303,-0.1559 0.41665,-0.2612 0.74486,-0.8267 0.89651,-1.5445 C 16,170.8496 16,170.1746 16,169.0495 v -13.099 c 0,-1.1251 0,-1.8001 -0.09046,-2.2501 -0.15165,-0.7178 -0.47986,-1.2833 -0.89651,-1.5445 C 14.84861,152.0527 14.67498,152 14.5,152 c -0.17498,0 -0.34861,0.0527 -0.51303,0.1559 -0.41665,0.2612 -0.74486,0.8267 -0.89651,1.5445 C 13,154.1504 13,154.8254 13,155.9505 v 13.099 c 0,1.1251 0,1.8001 0.09046,2.2501 0.15165,0.7178 0.47986,1.2833 0.89651,1.5445 C 14.15139,172.9473 14.32502,173 14.5,173 Z" /></clipPath><clipPath
       id="clipPath338"
       clipPathUnits="userSpaceOnUse"><path
         id="path336"
         d="m 13,152 h 3 v 21 h -3 z" /></clipPath><clipPath
       id="clipPath346"
       clipPathUnits="userSpaceOnUse"><path
         id="path344"
         d="M 0,0 H 3 V 21 H 0 Z" /></clipPath><clipPath
       id="clipPath350"
       clipPathUnits="userSpaceOnUse"><path
         id="path348"
         d="M 0,0 H 3 V 21 H 0 Z" /></clipPath><clipPath
       id="clipPath370"
       clipPathUnits="userSpaceOnUse"><path
         id="path368"
         d="M 0,0 H 707.665 V 201.834 H 0 Z" /></clipPath><clipPath
       id="clipPath376"
       clipPathUnits="userSpaceOnUse"><path
         id="path374"
         d="M 2.455689,33.61148 H 691.8122 V 176.5074 H 2.455689 Z" /></clipPath><clipPath
       id="clipPath380"
       clipPathUnits="userSpaceOnUse"><path
         id="path378"
         d="M 0,0 H 708 V 202 H 0 Z" /></clipPath></defs><g
     transform="matrix(1.3333333,0,0,-1.3333333,0,269.112)"
     id="g10"><g
       id="g12" /><g
       id="g14"><g
         clip-path="url(#clipPath20)"
         id="g16"><g
           transform="matrix(1,0,0,-1,0,201.834)"
           id="g22"><path
             id="path24"
             style="fill:none;stroke:#a9a9a9;stroke-width:0.5;stroke-linecap:butt;stroke-linejoin:miter;stroke-miterlimit:4;stroke-dasharray:none;stroke-opacity:0.5"
             d="M 183.5,23.83397 V 168.834" /></g><g
           transform="matrix(1,0,0,-1,0,201.834)"
           id="g26"><path
             id="path28"
             style="fill:none;stroke:#a9a9a9;stroke-width:0.5;stroke-linecap:butt;stroke-linejoin:miter;stroke-miterlimit:4;stroke-dasharray:none;stroke-opacity:0.5"
             d="M 355.5,23.83397 V 168.834" /></g><g
           transform="matrix(1,0,0,-1,0,201.834)"
           id="g30"><path
             id="path32"
             style="fill:none;stroke:#a9a9a9;stroke-width:0.5;stroke-linecap:butt;stroke-linejoin:miter;stroke-miterlimit:4;stroke-dasharray:none;stroke-opacity:0.5"
             d="M 527.5,23.83397 V 168.834" /></g><g
           transform="matrix(1,0,0,-1,0,201.834)"
           id="g34"><path
             id="path36"
             style="fill:none;stroke:#a9a9a9;stroke-width:0.5;stroke-linecap:butt;stroke-linejoin:miter;stroke-miterlimit:4;stroke-dasharray:none;stroke-opacity:0.5"
             d="M 698.5,23.83397 V 168.834" /></g><g
           transform="matrix(1,0,0,-1,0,201.834)"
           id="g38"><path
             id="path40"
             style="fill:none;stroke:#a9a9a9;stroke-width:1;stroke-linecap:square;stroke-linejoin:miter;stroke-miterlimit:4;stroke-dasharray:none;stroke-opacity:1"
             d="M 12.5,168.334 V 23.33397" /></g></g></g><g
       id="g42"><g
         clip-path="url(#clipPath48)"
         id="g44"><g
           transform="translate(0.5,102.0294)"
           id="g50" /></g></g><g
       id="g52"><g
         clip-path="url(#clipPath58)"
         id="g54"><g
           transform="translate(336.59,2.129974)"
           id="g60"><text
             id="text64"
             style="font-variant:normal;font-weight:normal;font-size:10px;font-family:HelveticaNeue;-inkscape-font-specification:HelveticaNeue;writing-mode:lr-tb;fill:#a9a9a9;fill-opacity:1;fill-rule:nonzero;stroke:none"
             transform="scale(1,-1)"><tspan
               id="tspan62"
               y="0"
               x="0 5 10.37 15.74 21.48 27.040001 32.970001">seconds</tspan></text>
</g></g></g><g
       id="g66"><g
         clip-path="url(#clipPath72)"
         id="g68"><g
           transform="translate(9.544966,19.70998)"
           id="g74"><text
             id="text78"
             style="font-variant:normal;font-weight:normal;font-size:10px;font-family:HelveticaNeue;-inkscape-font-specification:HelveticaNeue;writing-mode:lr-tb;fill:#a9a9a9;fill-opacity:1;fill-rule:nonzero;stroke:none"
             transform="scale(1,-1)"><tspan
               id="tspan76"
               y="0"
               x="0">0</tspan></text>
</g></g></g><g
       id="g80"><g
         clip-path="url(#clipPath86)"
         id="g82"><g
           transform="translate(178.39,19.70998)"
           id="g88"><text
             id="text92"
             style="font-variant:normal;font-weight:normal;font-size:10px;font-family:HelveticaNeue;-inkscape-font-specification:HelveticaNeue;writing-mode:lr-tb;fill:#a9a9a9;fill-opacity:1;fill-rule:nonzero;stroke:none"
             transform="scale(1,-1)"><tspan
               id="tspan90"
               y="0"
               x="0 5.5599999">45</tspan></text>
</g></g></g><g
       id="g94"><g
         clip-path="url(#clipPath100)"
         id="g96"><g
           transform="translate(350.015,19.70998)"
           id="g102"><text
             id="text106"
             style="font-variant:normal;font-weight:normal;font-size:10px;font-family:HelveticaNeue;-inkscape-font-specification:HelveticaNeue;writing-mode:lr-tb;fill:#a9a9a9;fill-opacity:1;fill-rule:nonzero;stroke:none"
             transform="scale(1,-1)"><tspan
               id="tspan104"
               y="0"
               x="0 5.5599999">90</tspan></text>
</g></g></g><g
       id="g108"><g
         clip-path="url(#clipPath114)"
         id="g110"><g
           transform="translate(518.86,19.70998)"
           id="g116"><text
             id="text120"
             style="font-variant:normal;font-weight:normal;font-size:10px;font-family:HelveticaNeue;-inkscape-font-specification:HelveticaNeue;writing-mode:lr-tb;fill:#a9a9a9;fill-opacity:1;fill-rule:nonzero;stroke:none"
             transform="scale(1,-1)"><tspan
               id="tspan118"
               y="0"
               x="0 5.5599999 11.12">135</tspan></text>
</g></g></g><g
       id="g122"><g
         clip-path="url(#clipPath128)"
         id="g124"><g
           transform="translate(690.485,19.70998)"
           id="g130"><text
             id="text134"
             style="font-variant:normal;font-weight:normal;font-size:10px;font-family:HelveticaNeue;-inkscape-font-specification:HelveticaNeue;writing-mode:lr-tb;fill:#a9a9a9;fill-opacity:1;fill-rule:nonzero;stroke:none"
             transform="scale(1,-1)"><tspan
               id="tspan132"
               y="0"
               x="0 5.5599999 11.12">180</tspan></text>
</g></g></g><g
       id="g136"><g
         clip-path="url(#clipPath142)"
         id="g138"><g
           clip-path="url(#clipPath148)"
           id="g144"><g
             transform="matrix(1,0,0,-1,13,59)"
             id="g150"><g
               id="g152" /><g
               id="g172"><g
                 id="g170"
                 clip-path="url(#clipPath156)"><g
                   id="g162" /><g
                   id="g168"><g
                     id="g166"
                     clip-path="url(#clipPath160)"><path
                       id="path164"
                       style="fill:#bc5b07;fill-opacity:1;fill-rule:nonzero;stroke:none"
                       d="M 0,0 H 624 V 21 H 0 Z" /></g></g></g></g></g></g></g></g><g
       id="g174"><g
         clip-path="url(#clipPath180)"
         id="g176"><g
           clip-path="url(#clipPath186)"
           id="g182"><g
             transform="matrix(1,0,0,-1,13,82)"
             id="g188"><g
               id="g190" /><g
               id="g210"><g
                 id="g208"
                 clip-path="url(#clipPath194)"><g
                   id="g200" /><g
                   id="g206"><g
                     id="g204"
                     clip-path="url(#clipPath198)"><path
                       id="path202"
                       style="fill:#cf8616;fill-opacity:1;fill-rule:nonzero;stroke:none"
                       d="M 0,0 H 130 V 21 H 0 Z" /></g></g></g></g></g></g></g></g><g
       id="g212"><g
         clip-path="url(#clipPath218)"
         id="g214"><g
           clip-path="url(#clipPath224)"
           id="g220"><g
             transform="matrix(1,0,0,-1,13,105)"
             id="g226"><g
               id="g228" /><g
               id="g248"><g
                 id="g246"
                 clip-path="url(#clipPath232)"><g
                   id="g238" /><g
                   id="g244"><g
                     id="g242"
                     clip-path="url(#clipPath236)"><path
                       id="path240"
                       style="fill:#5e86b8;fill-opacity:1;fill-rule:nonzero;stroke:none"
                       d="M 0,0 H 469 V 21 H 0 Z" /></g></g></g></g></g></g></g></g><g
       id="g250"><g
         clip-path="url(#clipPath256)"
         id="g252"><g
           clip-path="url(#clipPath262)"
           id="g258"><g
             transform="matrix(1,0,0,-1,13,128)"
             id="g264"><g
               id="g266" /><g
               id="g286"><g
                 id="g284"
                 clip-path="url(#clipPath270)"><g
                   id="g276" /><g
                   id="g282"><g
                     id="g280"
                     clip-path="url(#clipPath274)"><path
                       id="path278"
                       style="fill:#cb297b;fill-opacity:0.80040002;fill-rule:nonzero;stroke:none"
                       d="M 0,0 H 33 V 21 H 0 Z" /></g></g></g></g></g></g></g></g><g
       id="g288"><g
         clip-path="url(#clipPath294)"
         id="g290"><g
           clip-path="url(#clipPath300)"
           id="g296"><g
             transform="matrix(1,0,0,-1,13,150)"
             id="g302"><g
               id="g304" /><g
               id="g324"><g
                 id="g322"
                 clip-path="url(#clipPath308)"><g
                   id="g314" /><g
                   id="g320"><g
                     id="g318"
                     clip-path="url(#clipPath312)"><path
                       id="path316"
                       style="fill:#154c90;fill-opacity:1;fill-rule:nonzero;stroke:none"
                       d="M 0,0 H 4 V 20 H 0 Z" /></g></g></g></g></g></g></g></g><g
       id="g326"><g
         clip-path="url(#clipPath332)"
         id="g328"><g
           clip-path="url(#clipPath338)"
           id="g334"><g
             transform="matrix(1,0,0,-1,13,173)"
             id="g340"><g
               id="g342" /><g
               id="g362"><g
                 id="g360"
                 clip-path="url(#clipPath346)"><g
                   id="g352" /><g
                   id="g358"><g
                     id="g356"
                     clip-path="url(#clipPath350)"><path
                       id="path354"
                       style="fill:#0076ba;fill-opacity:0.80170001;fill-rule:nonzero;stroke:none"
                       d="M 0,0 H 3 V 21 H 0 Z" /></g></g></g></g></g></g></g></g><g
       id="g364"><g
         clip-path="url(#clipPath370)"
         id="g366"><g
           id="g372" /><g
           id="g426"><g
             id="g424"
             clip-path="url(#clipPath376)"><g
               id="g382" /><g
               id="g422"><g
                 id="g420"
                 clip-path="url(#clipPath380)"><g
                   id="g388"
                   transform="translate(639.6162,44.38348)"><text
                     id="text386"
                     style="font-variant:normal;font-weight:normal;font-size:12px;font-family:HelveticaNeue;-inkscape-font-specification:HelveticaNeue;writing-mode:lr-tb;fill:#a9a9a9;fill-opacity:1;fill-rule:nonzero;stroke:none"
                     transform="scale(1,-1)"><tspan
                       id="tspan384"
                       y="0"
                       x="0 6.6719999 13.344 20.016001 23.351999">163.8</tspan></text>
</g><g
                   id="g394"
                   transform="translate(145.7443,67.22346)"><text
                     id="text392"
                     style="font-variant:normal;font-weight:normal;font-size:12px;font-family:HelveticaNeue;-inkscape-font-specification:HelveticaNeue;writing-mode:lr-tb;fill:#a9a9a9;fill-opacity:1;fill-rule:nonzero;stroke:none"
                     transform="scale(1,-1)"><tspan
                       id="tspan390"
                       y="0"
                       x="0 6.6719999 13.344 16.68">34.3</tspan></text>
</g><g
                   id="g400"
                   transform="translate(484.8868,90.06344)"><text
                     id="text398"
                     style="font-variant:normal;font-weight:normal;font-size:12px;font-family:HelveticaNeue;-inkscape-font-specification:HelveticaNeue;writing-mode:lr-tb;fill:#a9a9a9;fill-opacity:1;fill-rule:nonzero;stroke:none"
                     transform="scale(1,-1)"><tspan
                       id="tspan396"
                       y="0"
                       x="0 6.6719999 13.344 20.016001 23.351999">123.3</tspan></text>
</g><g
                   id="g406"
                   transform="translate(48.33761,112.9034)"><text
                     id="text404"
                     style="font-variant:normal;font-weight:normal;font-size:12px;font-family:HelveticaNeue;-inkscape-font-specification:HelveticaNeue;writing-mode:lr-tb;fill:#a9a9a9;fill-opacity:1;fill-rule:nonzero;stroke:none"
                     transform="scale(1,-1)"><tspan
                       id="tspan402"
                       y="0"
                       x="0 6.6719999 10.008">8.8</tspan></text>
</g><g
                   id="g412"
                   transform="translate(19.5847,135.7434)"><text
                     id="text410"
                     style="font-variant:normal;font-weight:normal;font-size:12px;font-family:HelveticaNeue;-inkscape-font-specification:HelveticaNeue;writing-mode:lr-tb;fill:#a9a9a9;fill-opacity:1;fill-rule:nonzero;stroke:none"
                     transform="scale(1,-1)"><tspan
                       id="tspan408"
                       y="0"
                       x="0 6.6719999 10.008">1.2</tspan></text>
</g><g
                   id="g418"
                   transform="translate(18.86769,158.5834)"><text
                     id="text416"
                     style="font-variant:normal;font-weight:normal;font-size:12px;font-family:HelveticaNeue;-inkscape-font-specification:HelveticaNeue;writing-mode:lr-tb;fill:#a9a9a9;fill-opacity:1;fill-rule:nonzero;stroke:none"
                     transform="scale(1,-1)"><tspan
                       id="tspan414"
                       y="0"
                       x="0 6.6719999 10.008">1.1</tspan></text>
</g></g></g></g></g><path
           id="path428"
           style="fill:#0076ba;fill-opacity:0.80170001;fill-rule:nonzero;stroke:none"
           d="m 64,201 h 9 v -10 h -9 z" /><g
           transform="translate(79.35284,192.2439)"
           id="g430"><text
             id="text434"
             style="font-variant:normal;font-weight:normal;font-size:10px;font-family:HelveticaNeue;-inkscape-font-specification:HelveticaNeue;writing-mode:lr-tb;fill:#a9a9a9;fill-opacity:1;fill-rule:nonzero;stroke:none"
             transform="scale(1,-1)"><tspan
               id="tspan432"
               y="0"
               x="0 5.5599999">hl</tspan></text>
</g><path
           id="path436"
           style="fill:#154c90;fill-opacity:1;fill-rule:nonzero;stroke:none"
           d="m 139,201 h 9 v -10 h -9 z" /><g
           transform="translate(154.4107,192.2439)"
           id="g438"><text
             id="text442"
             style="font-variant:normal;font-weight:normal;font-size:10px;font-family:HelveticaNeue;-inkscape-font-specification:HelveticaNeue;writing-mode:lr-tb;fill:#a9a9a9;fill-opacity:1;fill-rule:nonzero;stroke:none"
             transform="scale(1,-1)"><tspan
               id="tspan440"
               y="0"
               x="0 5.5599999 7.7800002 10.56 14.45 19.629999 22.41 27.780001 30 37.580002 42.950001 47.950001">hl -x always</tspan></text>
</g><path
           id="path444"
           style="fill:#cb297b;fill-opacity:0.80040002;fill-rule:nonzero;stroke:none"
           d="m 259,201 h 9 v -10 h -9 z" /><g
           transform="translate(274.6386,192.2439)"
           id="g446"><text
             id="text450"
             style="font-variant:normal;font-weight:normal;font-size:10px;font-family:HelveticaNeue;-inkscape-font-specification:HelveticaNeue;writing-mode:lr-tb;fill:#a9a9a9;fill-opacity:1;fill-rule:nonzero;stroke:none"
             transform="scale(1,-1)"><tspan
               id="tspan448"
               y="0"
               x="0 5.5599999 7.7800002 13.52 19.26">hlogf</tspan></text>
</g><path
           id="path452"
           style="fill:#5e86b8;fill-opacity:1;fill-rule:nonzero;stroke:none"
           d="m 348,201 h 10 v -10 h -10 z" /><g
           transform="translate(364.1365,192.2439)"
           id="g454"><text
             id="text458"
             style="font-variant:normal;font-weight:normal;font-size:10px;font-family:HelveticaNeue;-inkscape-font-specification:HelveticaNeue;writing-mode:lr-tb;fill:#a9a9a9;fill-opacity:1;fill-rule:nonzero;stroke:none"
             transform="scale(1,-1)"><tspan
               id="tspan456"
               y="0"
               x="0 5.5599999 11.12 19.65 25.02 30.58 32.799999 38.540001">humanlog</tspan></text>
</g><path
           id="path460"
           style="fill:#cf8616;fill-opacity:1;fill-rule:nonzero;stroke:none"
           d="m 460,201 h 10 v -10 h -10 z" /><g
           transform="translate(475.6945,192.2439)"
           id="g462"><text
             id="text466"
             style="font-variant:normal;font-weight:normal;font-size:10px;font-family:HelveticaNeue;-inkscape-font-specification:HelveticaNeue;writing-mode:lr-tb;fill:#a9a9a9;fill-opacity:1;fill-rule:nonzero;stroke:none"
             transform="scale(1,-1)"><tspan
               id="tspan464"
               y="0"
               x="0 2.96 8.8900003 11.11 16.85">fblog</tspan></text>
</g><path
           id="path468"
           style="fill:#bc5b07;fill-opacity:1;fill-rule:nonzero;stroke:none"
           d="m 550,201 h 9 v -10 h -9 z" /><g
           transform="translate(565.5624,192.2439)"
           id="g470"><text
             id="text474"
             style="font-variant:normal;font-weight:normal;font-size:10px;font-family:HelveticaNeue;-inkscape-font-specification:HelveticaNeue;writing-mode:lr-tb;fill:#a9a9a9;fill-opacity:1;fill-rule:nonzero;stroke:none"
             transform="scale(1,-1)"><tspan
               id="tspan472"
               y="0"
               x="0 2.96 8.8900003 11.11 16.85 22.59 25.370001 29.26">fblog -d</tspan></text>
</g></g></g></g></svg>